<svg width="64" height="64" viewBox="0 0 64 64" fill="none" xmlns="http://www.w3.org/2000/svg">
  <defs>
    <linearGradient id="db" x1="0" y1="0" x2="64" y2="64" gradientUnits="userSpaceOnUse">
      <stop stop-color="#3b82f6"/>
      <stop offset="1" stop-color="#06b6d4"/>
    </linearGradient>
  </defs>
  <rect width="64" height="64" rx="14" fill="#0d1117"/>
  <rect x="1.5" y="1.5" width="61" height="61" rx="12.5" stroke="url(#db)" stroke-opacity="0.5" stroke-width="3"/>
  <!-- Fusée de déploiement -->
  <path d="M32 12c6.5 3.2 10 9 10 16 0 3.2-.8 6-2 8.2l-3.4-2.2a2 2 0 0 0-2.2 0l-4.4 2.9-4.4-2.9a2 2 0 0 0-2.2 0L20 36.2c-1.2-2.2-2-5-2-8.2 0-7 3.5-12.8 10-16z" fill="url(#db)"/>
  <circle cx="32" cy="26" r="4" fill="#0d1117"/>
  <!-- Flammes -->
  <path d="M28 42l4 8 4-8-1.8 1.2a2 2 0 0 1-2.2 0z" fill="#06b6d4"/>
</svg>
